{
  "accessors": [
    {
      "bufferView": 2,
      "componentType": 5126,
      "count": 22653,
      "max": [
        0.05404689162969589,
        0.5054158568382263,
        0.07116620987653732
      ],
      "min": [
        -0.0704670175909996,
        0.37021467089653015,
        -0.07851974666118622
      ],
      "type": "VEC3"
    },
    {
      "bufferView": 2,
      "byteOffset": 271836,
      "componentType": 5126,
      "count": 22653,
      "max": [
        0.9994376301765442,
        0.999990701675415,
        0.9999207854270935
      ],
      "min": [
        -0.9999443292617798,
        -0.9999392032623291,
        -0.9998987317085266
      ],
      "type": "VEC3"
    },
    {
      "bufferView": 1,
      "componentType": 5126,
      "count": 22653,
      "max": [
        0.9947753548622131,
        0.9999180436134338
      ],
      "min": [
        0.00010604992712615058,
        1.633167266845703e-05
      ],
      "type": "VEC2"
    },
    {
      "bufferView": 1,
      "byteOffset": 181224,
      "componentType": 5126,
      "count": 22653,
      "max": [
        0.9947753548622131,
        0.9999180436134338
      ],
      "min": [
        0.00010604992712615058,
        1.633167266845703e-05
      ],
      "type": "VEC2"
    },
    {
      "bufferView": 1,
      "byteOffset": 362448,
      "componentType": 5126,
      "count": 22653,
      "max": [
        0.9947753548622131,
        0.9999180436134338
      ],
      "min": [
        0.00010604992712615058,
        1.633167266845703e-05
      ],
      "type": "VEC2"
    },
    {
      "bufferView": 0,
      "componentType": 5125,
      "count": 97653,
      "type": "SCALAR"
    }
  ],
  "asset": {
    "extras": {
      "author": "duchess (https://sketchfab.com/duchrsd)",
      "license": "CC-BY-NC-SA-4.0 (http://creativecommons.org/licenses/by-nc-sa/4.0/)",
      "source": "https://sketchfab.com/3d-models/plant-pot-3522514a017e40bba11b4873c9e4b56d",
      "title": "Plant Pot"
    },
    "generator": "Sketchfab-16.15.0",
    "version": "2.0"
  },
  "bufferViews": [
    {
      "buffer": 0,
      "byteLength": 390612,
      "name": "floatBufferViews",
      "target": 34963
    },
    {
      "buffer": 0,
      "byteLength": 543672,
      "byteOffset": 390612,
      "byteStride": 8,
      "name": "floatBufferViews",
      "target": 34962
    },
    {
      "buffer": 0,
      "byteLength": 543672,
      "byteOffset": 934284,
      "byteStride": 12,
      "name": "floatBufferViews",
      "target": 34962
    }
  ],
  "buffers": [
    {
      "byteLength": 1477956,
      "uri": "scene.bin"
    }
  ],
  "extensionsUsed": [
    "KHR_materials_unlit"
  ],
  "images": [
    {
      "uri": "textures/material_0_baseColor.jpeg"
    }
  ],
  "materials": [
    {
      "extensions": {
        "KHR_materials_unlit": {}
      },
      "name": "material_0",
      "pbrMetallicRoughness": {
        "baseColorTexture": {
          "index": 0
        },
        "metallicFactor": 0.0
      }
    }
  ],
  "meshes": [
    {
      "name": "Object_0",
      "primitives": [
        {
          "attributes": {
            "NORMAL": 1,
            "POSITION": 0,
            "TEXCOORD_0": 2,
            "TEXCOORD_1": 3,
            "TEXCOORD_2": 4
          },
          "indices": 5,
          "material": 0,
          "mode": 4
        }
      ]
    }
  ],
  "nodes": [
    {
      "children": [
        1
      ],
      "matrix": [
        1.0,
        0.0,
        0.0,
        0.0,
        0.0,
        2.220446049250313e-16,
        -1.0,
        0.0,
        0.0,
        1.0,
        2.220446049250313e-16,
        0.0,
        0.0,
        0.0,
        0.0,
        1.0
      ],
      "name": "Sketchfab_model"
    },
    {
      "children": [
        2
      ],
      "name": "root"
    },
    {
      "children": [
        3
      ],
      "matrix": [
        1.0,
        0.0,
        0.0,
        0.0,
        0.0,
        2.220446049250313e-16,
        1.0,
        0.0,
        0.0,
        -1.0,
        2.220446049250313e-16,
        0.0,
        0.0,
        0.0,
        0.0,
        1.0
      ],
      "name": "GLTF_SceneRootNode"
    },
    {
      "children": [
        4
      ],
      "name": "_0"
    },
    {
      "mesh": 0,
      "name": "Object_4"
    }
  ],
  "samplers": [
    {
      "magFilter": 9729,
      "minFilter": 9987,
      "wrapS": 10497,
      "wrapT": 10497
    }
  ],
  "scene": 0,
  "scenes": [
    {
      "name": "Sketchfab_Scene",
      "nodes": [
        0
      ]
    }
  ],
  "textures": [
    {
      "sampler": 0,
      "source": 0
    }
  ]
}
