{
  "accessors": [
    {
      "bufferView": 2,
      "componentType": 5126,
      "count": 6712,
      "max": [
        0.003358999965712428,
        0.04528199881315231,
        0.034922000020742416
      ],
      "min": [
        -0.003272000001743436,
        0.020701000466942787,
        0.010336999781429768
      ],
      "type": "VEC3"
    },
    {
      "bufferView": 2,
      "byteOffset": 80544,
      "componentType": 5126,
      "count": 6712,
      "max": [
        1.0,
        1.0,
        0.9999908208847046
      ],
      "min": [
        -1.0,
        -1.0,
        -0.9999908208847046
      ],
      "type": "VEC3"
    },
    {
      "bufferView": 3,
      "componentType": 5126,
      "count": 6712,
      "max": [
        0.9993797540664673,
        0.9999899864196777,
        0.9999996423721313,
        1.0
      ],
      "min": [
        -0.9971265196800232,
        -0.9999837279319763,
        -0.9999998807907104,
        -1.0
      ],
      "type": "VEC4"
    },
    {
      "bufferView": 1,
      "componentType": 5126,
      "count": 6712,
      "max": [
        0.923160970211029,
        0.6388229727745056
      ],
      "min": [
        0.0012209999840706587,
        0.19717000424861908
      ],
      "type": "VEC2"
    },
    {
      "bufferView": 0,
      "componentType": 5125,
      "count": 31248,
      "type": "SCALAR"
    },
    {
      "bufferView": 2,
      "byteOffset": 161088,
      "componentType": 5126,
      "count": 9473,
      "max": [
        0.03195299953222275,
        0.05991800129413605,
        0.04843199998140335
      ],
      "min": [
        -0.05120300129055977,
        -0.06148400157690048,
        0.001246000058017671
      ],
      "type": "VEC3"
    },
    {
      "bufferView": 2,
      "byteOffset": 274764,
      "componentType": 5126,
      "count": 9473,
      "max": [
        0.9998279213905334,
        1.0,
        0.9998891353607178
      ],
      "min": [
        -0.9999644756317139,
        -0.9964907765388489,
        -1.0
      ],
      "type": "VEC3"
    },
    {
      "bufferView": 3,
      "byteOffset": 107392,
      "componentType": 5126,
      "count": 9473,
      "max": [
        0.9966185092926025,
        0.998685359954834,
        0.994965672492981,
        1.0
      ],
      "min": [
        -0.9999504089355469,
        -0.9999932646751404,
        -0.9998811483383179,
        -1.0
      ],
      "type": "VEC4"
    },
    {
      "bufferView": 1,
      "byteOffset": 53696,
      "componentType": 5126,
      "count": 9473,
      "max": [
        0.8175110220909119,
        0.5587720274925232
      ],
      "min": [
        0.0012240000069141388,
        0.0012989999959245324
      ],
      "type": "VEC2"
    },
    {
      "bufferView": 0,
      "byteOffset": 124992,
      "componentType": 5125,
      "count": 52212,
      "type": "SCALAR"
    },
    {
      "bufferView": 2,
      "byteOffset": 388440,
      "componentType": 5126,
      "count": 9251,
      "max": [
        0.024862000718712807,
        0.062199998646974564,
        0.04582500085234642
      ],
      "min": [
        -0.032513998448848724,
        -0.035523999482393265,
        0.001256000017747283
      ],
      "type": "VEC3"
    },
    {
      "bufferView": 2,
      "byteOffset": 499452,
      "componentType": 5126,
      "count": 9251,
      "max": [
        0.9999955892562866,
        1.0,
        1.0
      ],
      "min": [
        -0.9999955892562866,
        -1.0,
        -1.0
      ],
      "type": "VEC3"
    },
    {
      "bufferView": 3,
      "byteOffset": 258960,
      "componentType": 5126,
      "count": 9251,
      "max": [
        1.0,
        1.0,
        0.9998713731765747,
        1.0
      ],
      "min": [
        -1.0,
        -1.0,
        -1.0,
        -1.0
      ],
      "type": "VEC4"
    },
    {
      "bufferView": 1,
      "byteOffset": 129480,
      "componentType": 5126,
      "count": 9251,
      "max": [
        0.9949210286140442,
        0.9987729787826538
      ],
      "min": [
        0.0012199999764561653,
        0.0012229999992996454
      ],
      "type": "VEC2"
    },
    {
      "bufferView": 0,
      "byteOffset": 333840,
      "componentType": 5125,
      "count": 49944,
      "type": "SCALAR"
    },
    {
      "bufferView": 2,
      "byteOffset": 610464,
      "componentType": 5126,
      "count": 2276,
      "max": [
        0.027052000164985657,
        0.04734500125050545,
        0.0016349999932572246
      ],
      "min": [
        -0.04148299992084503,
        -0.04743000119924545,
        0.0010600000387057662
      ],
      "type": "VEC3"
    },
    {
      "bufferView": 2,
      "byteOffset": 637776,
      "componentType": 5126,
      "count": 2276,
      "max": [
        0.9997400641441345,
        0.9997394680976868,
        -0.02130061388015747
      ],
      "min": [
        -0.9997400641441345,
        -0.9997394680976868,
        -1.0
      ],
      "type": "VEC3"
    },
    {
      "bufferView": 3,
      "byteOffset": 406976,
      "componentType": 5126,
      "count": 2276,
      "max": [
        0.8160009384155273,
        1.0,
        0.9997386932373047,
        1.0
      ],
      "min": [
        -1.0,
        -1.0,
        -0.9993208050727844,
        -1.0
      ],
      "type": "VEC4"
    },
    {
      "bufferView": 1,
      "byteOffset": 203488,
      "componentType": 5126,
      "count": 2276,
      "max": [
        0.8162639737129211,
        0.29155901074409485
      ],
      "min": [
        0.20134100317955017,
        0.00120599998626858
      ],
      "type": "VEC2"
    },
    {
      "bufferView": 0,
      "byteOffset": 533616,
      "componentType": 5125,
      "count": 12612,
      "type": "SCALAR"
    },
    {
      "bufferView": 2,
      "byteOffset": 665088,
      "componentType": 5126,
      "count": 11201,
      "max": [
        0.031170999631285667,
        0.05158599838614464,
        0.05080600082874298
      ],
      "min": [
        -0.05147099867463112,
        -0.058097001165151596,
        0.005100000184029341
      ],
      "type": "VEC3"
    },
    {
      "bufferView": 2,
      "byteOffset": 799500,
      "componentType": 5126,
      "count": 11201,
      "max": [
        0.9999969005584717,
        0.9991676807403564,
        0.9999067783355713
      ],
      "min": [
        -0.9999951124191284,
        -0.9999486207962036,
        -0.9995023608207703
      ],
      "type": "VEC3"
    },
    {
      "bufferView": 3,
      "byteOffset": 443392,
      "componentType": 5126,
      "count": 11201,
      "max": [
        0.9985874891281128,
        0.9650473594665527,
        0.9958652257919312,
        1.0
      ],
      "min": [
        -0.9989826083183289,
        -0.9973272085189819,
        -0.9999140501022339,
        -1.0
      ],
      "type": "VEC4"
    },
    {
      "bufferView": 1,
      "byteOffset": 221696,
      "componentType": 5126,
      "count": 11201,
      "max": [
        0.8580430150032043,
        0.9862419962882996
      ],
      "min": [
        0.041735000908374786,
        0.4894559979438782
      ],
      "type": "VEC2"
    },
    {
      "bufferView": 0,
      "byteOffset": 584064,
      "componentType": 5125,
      "count": 65574,
      "type": "SCALAR"
    }
  ],
  "asset": {
    "extras": {
      "author": "Krystian (https://sketchfab.com/kporabik)",
      "license": "CC-BY-NC-ND-4.0 (http://creativecommons.org/licenses/by-nc-nd/4.0/)",
      "source": "https://sketchfab.com/3d-models/logitech-mx-master-3s-e3f9cfe03c0e4aa79570cfd2402e65fd",
      "title": "Logitech MX Master 3S"
    },
    "generator": "Sketchfab-16.68.0",
    "version": "2.0"
  },
  "bufferViews": [
    {
      "buffer": 0,
      "byteLength": 846360,
      "name": "floatBufferViews",
      "target": 34963
    },
    {
      "buffer": 0,
      "byteLength": 311304,
      "byteOffset": 846360,
      "byteStride": 8,
      "name": "floatBufferViews",
      "target": 34962
    },
    {
      "buffer": 0,
      "byteLength": 933912,
      "byteOffset": 1157664,
      "byteStride": 12,
      "name": "floatBufferViews",
      "target": 34962
    },
    {
      "buffer": 0,
      "byteLength": 622608,
      "byteOffset": 2091576,
      "byteStride": 16,
      "name": "floatBufferViews",
      "target": 34962
    }
  ],
  "buffers": [
    {
      "byteLength": 2714184,
      "uri": "scene.bin"
    }
  ],
  "extensionsUsed": [
    "KHR_materials_emissive_strength",
    "KHR_materials_clearcoat"
  ],
  "images": [
    {
      "uri": "textures/Logi_baseColor.jpeg"
    },
    {
      "uri": "textures/Logi_metallicRoughness.png"
    },
    {
      "uri": "textures/Logi_emissive.jpeg"
    },
    {
      "uri": "textures/Logi_normal.png"
    },
    {
      "uri": "textures/Logi_clearcoat.png"
    }
  ],
  "materials": [
    {
      "doubleSided": true,
      "emissiveFactor": [
        1.0,
        1.0,
        1.0
      ],
      "emissiveTexture": {
        "index": 2
      },
      "extensions": {
        "KHR_materials_clearcoat": {
          "clearcoatFactor": 1.0,
          "clearcoatRoughnessFactor": 0.1386670892711292,
          "clearcoatTexture": {
            "index": 4
          }
        },
        "KHR_materials_emissive_strength": {
          "emissiveStrength": 1.4476234594238764
        }
      },
      "name": "Logi",
      "normalTexture": {
        "index": 3
      },
      "occlusionTexture": {
        "index": 1
      },
      "pbrMetallicRoughness": {
        "baseColorTexture": {
          "index": 0
        },
        "metallicRoughnessTexture": {
          "index": 1
        }
      }
    }
  ],
  "meshes": [
    {
      "name": "Object_0",
      "primitives": [
        {
          "attributes": {
            "NORMAL": 1,
            "POSITION": 0,
            "TANGENT": 2,
            "TEXCOORD_0": 3
          },
          "indices": 4,
          "material": 0,
          "mode": 4
        }
      ]
    },
    {
      "name": "Object_1",
      "primitives": [
        {
          "attributes": {
            "NORMAL": 6,
            "POSITION": 5,
            "TANGENT": 7,
            "TEXCOORD_0": 8
          },
          "indices": 9,
          "material": 0,
          "mode": 4
        }
      ]
    },
    {
      "name": "Object_2",
      "primitives": [
        {
          "attributes": {
            "NORMAL": 11,
            "POSITION": 10,
            "TANGENT": 12,
            "TEXCOORD_0": 13
          },
          "indices": 14,
          "material": 0,
          "mode": 4
        }
      ]
    },
    {
      "name": "Object_3",
      "primitives": [
        {
          "attributes": {
            "NORMAL": 16,
            "POSITION": 15,
            "TANGENT": 17,
            "TEXCOORD_0": 18
          },
          "indices": 19,
          "material": 0,
          "mode": 4
        }
      ]
    },
    {
      "name": "Object_4",
      "primitives": [
        {
          "attributes": {
            "NORMAL": 21,
            "POSITION": 20,
            "TANGENT": 22,
            "TEXCOORD_0": 23
          },
          "indices": 24,
          "material": 0,
          "mode": 4
        }
      ]
    }
  ],
  "nodes": [
    {
      "children": [
        1
      ],
      "matrix": [
        1.0,
        0.0,
        0.0,
        0.0,
        0.0,
        2.220446049250313e-16,
        -1.0,
        0.0,
        0.0,
        1.0,
        2.220446049250313e-16,
        0.0,
        0.0,
        0.0,
        0.0,
        1.0
      ],
      "name": "Sketchfab_model"
    },
    {
      "children": [
        2,
        3,
        4,
        5,
        6
      ],
      "name": "mx_master.obj.cleaner.materialmerger.gles"
    },
    {
      "mesh": 0,
      "name": "Object_2"
    },
    {
      "mesh": 1,
      "name": "Object_3"
    },
    {
      "mesh": 2,
      "name": "Object_4"
    },
    {
      "mesh": 3,
      "name": "Object_5"
    },
    {
      "mesh": 4,
      "name": "Object_6"
    }
  ],
  "samplers": [
    {
      "magFilter": 9729,
      "minFilter": 9987,
      "wrapS": 10497,
      "wrapT": 10497
    }
  ],
  "scene": 0,
  "scenes": [
    {
      "name": "Sketchfab_Scene",
      "nodes": [
        0
      ]
    }
  ],
  "textures": [
    {
      "sampler": 0,
      "source": 0
    },
    {
      "sampler": 0,
      "source": 1
    },
    {
      "sampler": 0,
      "source": 2
    },
    {
      "sampler": 0,
      "source": 3
    },
    {
      "sampler": 0,
      "source": 4
    }
  ]
}
